<?xml version="1.0" standalone="no"?>
<!DOCTYPE svg PUBLIC "-//W3C//DTD SVG 20010904//EN"
 "http://www.w3.org/TR/2001/REC-SVG-20010904/DTD/svg10.dtd">
<svg version="1.0" xmlns="http://www.w3.org/2000/svg"
 width="260.000000pt" height="260.000000pt" viewBox="0 0 260.000000 260.000000"
 preserveAspectRatio="xMidYMid meet">
<metadata>
Created by potrace 1.11, written by Peter Selinger 2001-2013
</metadata>
<g transform="translate(0.000000,260.000000) scale(0.100000,-0.100000)"
fill="#000000" stroke="none">
<path d="M2129 2559 c-36 -4 -84 -16 -106 -28 -43 -21 -123 -105 -123 -127 0
-8 -27 1 -75 28 -101 54 -185 80 -305 95 -74 10 -251 9 -325 0 -401 -53 -764
-304 -943 -656 -41 -79 -87 -202 -97 -260 -3 -19 -8 -37 -10 -41 -17 -28 -25
-307 -12 -410 31 -247 125 -471 273 -651 176 -215 447 -380 714 -433 181 -36
378 -38 544 -5 28 6 62 13 76 15 100 20 268 95 385 173 71 47 220 187 267 251
34 45 73 120 83 156 13 53 14 146 0 191 -29 96 -91 155 -207 194 -123 41 -227
11 -348 -101 -91 -85 -217 -180 -270 -203 -74 -33 -148 -45 -249 -42 -165 6
-296 63 -415 180 -109 107 -155 217 -162 387 -9 249 99 442 308 546 154 78
285 94 453 58 88 -19 188 -71 264 -136 157 -135 231 -171 352 -172 129 -1 228
74 266 200 13 46 16 101 17 277 0 246 -4 289 -36 353 -53 111 -180 175 -319
161z"/>
</g>
</svg>
